HIERARCHY
ROOT Hips
{
	OFFSET -0.001795 -0.223333 0.028219
	CHANNELS 6 Xposition Yposition Zposition Zrotation Yrotation Xrotation 
	JOINT LeftUpLeg
	{
		OFFSET 0.069520 -0.091406 -0.006815
		CHANNELS 3 Zrotation Yrotation Xrotation
		JOINT LeftLeg
		{
			OFFSET 0.034277 -0.375199 -0.004496
			CHANNELS 3 Zrotation Yrotation Xrotation
			JOINT LeftFoot
			{
				OFFSET -0.013596 -0.397961 -0.043693
				CHANNELS 3 Zrotation Yrotation Xrotation
				JOINT LeftToe
				{
					OFFSET 0.026358 -0.055791 0.119288
					CHANNELS 3 Zrotation Yrotation Xrotation
					End Site
					{
						OFFSET 0.000000 0.000000 0.000000
					}
				}
			}
		}
	}
	JOINT RightUpLeg
	{
		OFFSET -0.067670 -0.090522 -0.004320
		CHANNELS 3 Zrotation Yrotation Xrotation
		JOINT RightLeg
		{
			OFFSET -0.038290 -0.382569 -0.008850
			CHANNELS 3 Zrotation Yrotation Xrotation
			JOINT RightFoot
			{
				OFFSET 0.015774 -0.398415 -0.042312
				CHANNELS 3 Zrotation Yrotation Xrotation
				JOINT RightToe
				{
					OFFSET -0.025372 -0.048144 0.123348
					CHANNELS 3 Zrotation Yrotation Xrotation
					End Site
					{
						OFFSET 0.000000 0.000000 0.000000
					}
				}
			}
		}
	}
	JOINT Spine
	{
		OFFSET -0.002533 0.108963 -0.026696
		CHANNELS 3 Zrotation Yrotation Xrotation
		JOINT Spine1
		{
			OFFSET 0.005487 0.135180 0.001092
			CHANNELS 3 Zrotation Yrotation Xrotation
			JOINT Spine2
			{
				OFFSET 0.001457 0.052922 0.025425
				CHANNELS 3 Zrotation Yrotation Xrotation
				JOINT Neck
				{
					OFFSET -0.002778 0.213870 -0.042857
					CHANNELS 3 Zrotation Yrotation Xrotation
					JOINT Head
					{
						OFFSET 0.005152 0.064970 0.051349
						CHANNELS 3 Zrotation Yrotation Xrotation
						End Site
						{
							OFFSET 0.000000 0.000000 0.000000
						}
					}
				}
				JOINT LeftShoulder
				{
					OFFSET 0.078845 0.121749 -0.034090
					CHANNELS 3 Zrotation Yrotation Xrotation
					JOINT LeftArm
					{
						OFFSET 0.090977 0.030469 -0.008868
						CHANNELS 3 Zrotation Yrotation Xrotation
						JOINT LeftForeArm
						{
							OFFSET 0.259612 -0.012772 -0.027456
							CHANNELS 3 Zrotation Yrotation Xrotation
							JOINT LeftHand
							{
								OFFSET 0.249234 0.008986 -0.001171
								CHANNELS 3 Zrotation Yrotation Xrotation
								End Site
								{
									OFFSET 0.000000 0.000000 0.000000
								}
							}
						}
					}
				}
				JOINT RightShoulder
				{
					OFFSET -0.081759 0.118833 -0.038615
					CHANNELS 3 Zrotation Yrotation Xrotation
					JOINT RightArm
					{
						OFFSET -0.096012 0.032551 -0.009143
						CHANNELS 3 Zrotation Yrotation Xrotation
						JOINT RightForeArm
						{
							OFFSET -0.253742 -0.013329 -0.021401
							CHANNELS 3 Zrotation Yrotation Xrotation
							JOINT RightHand
							{
								OFFSET -0.255298 0.007772 -0.005559
								CHANNELS 3 Zrotation Yrotation Xrotation
								End Site
								{
									OFFSET 0.000000 0.000000 0.000000
								}
							}
						}
					}
				}
			}
		}
	}
}
MOTION
Frames: 13
Frame Time: 0.050000
0.000000 0.939777 0.000000 -0.989173 1.563993 5.314769 6.690305 -0.294483 -3.292476 3.192550 -0.215874 -1.930277 9.695236 20.120815 19.817811 0.000000 0.000000 0.000000 -4.632100 0.399520 -4.140991 -2.191660 0.288502 0.934429 6.559453 13.117467 4.782152 0.000000 0.000000 0.000000 3.099912 0.115610 -2.959368 -1.512560 0.752277 -2.653009 -1.851261 2.461323 0.782318 3.366137 -1.551725 -7.570113 0.000000 0.000000 0.000000 -18.038189 -0.581181 -2.402055 -53.791853 -2.841514 -4.647488 -8.640328 -17.275870 1.802245 0.000000 0.000000 0.000000 17.685166 -2.474184 -2.236538 59.753119 3.950060 -3.407485 6.313037 18.413723 1.586798 0.000000 0.000000 0.000000 
0.000481 0.939122 -0.000254 -1.166216 0.928415 5.712179 6.807765 -0.268805 -2.568082 3.178392 -0.106642 -3.724755 10.041146 20.500822 20.166742 0.000000 0.000000 0.000000 -4.727086 0.448166 -4.799101 -1.872943 0.257389 1.071492 6.797992 13.624528 4.809709 0.000000 0.000000 0.000000 3.570908 0.139384 -3.339754 -2.410099 1.145040 -3.021604 -1.337301 2.776788 0.830317 2.344183 -0.730795 -8.590795 0.000000 0.000000 0.000000 -18.937728 0.587372 -3.103278 -52.924523 -2.556820 -4.672253 -9.993910 -18.080775 2.101550 0.000000 0.000000 0.000000 17.728412 -3.216049 -2.676137 60.120284 3.816946 -3.484575 6.848331 18.605560 1.679813 0.000000 0.000000 0.000000 
0.000801 0.939147 -0.000486 -1.030768 1.572810 5.552483 6.676441 -0.287982 -2.979377 3.221858 -0.151857 -2.996009 9.703311 20.128189 19.782109 0.000000 0.000000 0.000000 -5.014702 0.450272 -5.040899 -1.525891 0.268888 2.030889 6.458707 13.115219 4.482988 0.000000 0.000000 0.000000 2.999008 0.117487 -3.022349 -1.708279 0.866759 -4.837985 -1.607739 2.160771 2.085224 2.156879 -0.645649 -8.384763 0.000000 0.000000 0.000000 -18.745500 0.321569 -2.854143 -53.094976 -2.389018 -4.895878 -9.573908 -18.104647 2.056536 0.000000 0.000000 0.000000 18.657599 -1.870251 -2.030412 58.636607 4.033223 -3.487379 6.700250 18.673944 1.669573 0.000000 0.000000 0.000000 
0.001102 0.939181 -0.000525 -1.104357 1.471080 5.927026 6.832363 -0.305663 -3.372106 3.041381 -0.138377 -2.985014 9.796247 20.240915 19.837741 0.000000 0.000000 0.000000 -5.124496 0.495023 -5.765746 -1.245004 0.258795 2.544189 6.482052 13.148348 4.509079 0.000000 0.000000 0.000000 2.847505 0.134821 -3.339902 -2.294431 1.107280 -4.434216 -0.440213 1.323589 1.125364 1.308455 -0.210057 -7.622238 0.000000 0.000000 0.000000 -18.354087 1.627680 -3.226188 -54.120953 -2.698773 -4.822140 -9.308905 -18.483773 2.088746 0.000000 0.000000 0.000000 16.772737 -1.626612 -2.028279 59.445484 3.753061 -3.514201 7.783835 19.462016 1.868973 0.000000 0.000000 0.000000 
0.001375 0.939879 -0.000498 -0.933484 2.139789 5.860237 6.704718 -0.317559 -3.483601 3.009502 -0.134733 -2.951673 9.371080 19.757511 19.761572 0.000000 0.000000 0.000000 -5.322739 0.459909 -5.334739 -1.116379 0.223825 2.152896 6.288607 12.586445 4.692906 0.000000 0.000000 0.000000 2.355490 0.125395 -3.210551 -1.381231 0.737336 -4.887733 -0.952367 1.088037 1.261069 1.134608 -0.067344 -7.703038 0.000000 0.000000 0.000000 -18.028683 1.788182 -3.314734 -54.435091 -3.013005 -4.726458 -9.801689 -18.827957 2.198782 0.000000 0.000000 0.000000 16.865325 -1.764412 -2.045603 59.185937 3.574239 -3.605614 8.356396 20.011063 2.033207 0.000000 0.000000 0.000000 
0.001672 0.940147 -0.000315 -0.938775 2.151229 6.195708 6.722545 -0.341014 -4.053516 2.957083 -0.152535 -2.575978 9.394624 19.793342 19.796613 0.000000 0.000000 0.000000 -5.302665 0.480518 -5.644159 -1.176386 0.227301 2.070772 6.299742 12.512044 4.831339 0.000000 0.000000 0.000000 2.116581 0.148410 -3.651218 -1.429966 0.756578 -4.854695 -0.398970 0.783474 1.175214 1.184294 -0.126254 -7.694243 0.000000 0.000000 0.000000 -18.198519 2.496934 -3.612932 -54.492126 -3.059414 -4.712390 -10.136905 -19.231418 2.318135 0.000000 0.000000 0.000000 16.116946 -1.617608 -1.992449 59.641416 3.545405 -3.623783 8.704042 19.952190 2.063807 0.000000 0.000000 0.000000 
0.001924 0.940468 -0.000084 -0.820527 2.236812 6.242391 6.555905 -0.344182 -4.088149 3.002249 -0.153474 -2.614172 9.319775 19.708160 19.870235 0.000000 0.000000 0.000000 -5.226214 0.468857 -5.414237 -1.553774 0.252562 1.638485 6.283573 12.401097 4.935532 0.000000 0.000000 0.000000 1.931112 0.146173 -3.629318 -1.268824 0.689245 -4.798402 -0.466854 0.310740 0.983740 1.204007 -0.159392 -7.712271 0.000000 0.000000 0.000000 -18.132721 2.906989 -3.729311 -54.751997 -2.897182 -4.803461 -10.560625 -19.680199 2.459701 0.000000 0.000000 0.000000 16.205868 -1.617197 -2.088692 59.725770 3.255613 -3.759492 8.785153 20.410344 2.113965 0.000000 0.000000 0.000000 
0.002240 0.940514 0.000125 -0.760654 2.330757 6.419886 6.321567 -0.362230 -4.473031 3.281001 -0.195831 -2.288109 9.286110 19.677651 19.845383 0.000000 0.000000 0.000000 -5.150418 0.473128 -5.451144 -1.825572 0.274244 1.425428 6.233348 12.277927 4.952678 0.000000 0.000000 0.000000 1.636489 0.147079 -3.683092 -1.038510 0.592478 -4.742338 -0.418663 0.189222 0.620700 1.079228 -0.040947 -8.087192 0.000000 0.000000 0.000000 -17.940498 3.269451 -3.876778 -54.891080 -2.947283 -4.763248 -10.947590 -19.624343 2.517234 0.000000 0.000000 0.000000 16.261065 -1.951828 -2.290682 59.923189 3.054128 -3.834341 8.809514 20.191216 2.085644 0.000000 0.000000 0.000000 
0.002520 0.940551 0.000306 -0.762030 2.193354 6.654926 6.218490 -0.371883 -4.678111 3.413016 -0.206742 -2.298573 9.374256 19.781246 19.942275 0.000000 0.000000 0.000000 -5.055879 0.482799 -5.517995 -2.058260 0.280809 1.057098 6.303732 12.343451 5.076784 0.000000 0.000000 0.000000 1.551367 0.147435 -3.708577 -0.890630 0.529704 -4.804827 -0.456583 0.050949 0.236759 1.015765 0.019149 -8.373998 0.000000 0.000000 0.000000 -17.511867 3.450116 -3.865762 -55.249128 -2.899613 -4.788006 -11.149728 -19.359812 2.519829 0.000000 0.000000 0.000000 16.128630 -2.230943 -2.470047 60.047061 2.849284 -3.901476 8.721187 20.064502 2.044754 0.000000 0.000000 0.000000 
0.002713 0.940541 0.000453 -0.683454 2.389389 6.852878 6.124541 -0.392140 -5.054901 3.441863 -0.222034 -2.076573 9.283349 19.685381 19.866815 0.000000 0.000000 0.000000 -5.210888 0.489439 -5.683993 -1.920788 0.265680 1.066058 6.212184 12.155815 5.060938 0.000000 0.000000 0.000000 1.433215 0.149378 -3.784758 -0.831261 0.507409 -4.824162 -0.397953 -0.194177 -0.014880 0.827577 0.202519 -9.101479 0.000000 0.000000 0.000000 -17.062877 3.464664 -3.774655 -55.430894 -3.077204 -4.703705 -11.850658 -19.085435 2.602373 0.000000 0.000000 0.000000 15.921306 -2.321407 -2.529408 59.938354 2.600118 -3.991540 8.942042 19.955296 2.058177 0.000000 0.000000 0.000000 
0.002841 0.940673 0.000542 -0.555795 2.326519 7.037346 6.000884 -0.399248 -5.165179 3.386579 -0.209668 -2.198208 9.302962 19.708155 19.979566 0.000000 0.000000 0.000000 -5.423839 0.492950 -5.768784 -1.824137 0.242774 0.857513 6.253186 12.174269 5.162197 0.000000 0.000000 0.000000 1.341711 0.152402 -3.862123 -0.716860 0.459140 -4.846467 -0.459375 -0.295571 -0.087719 0.688894 0.312661 -9.395252 0.000000 0.000000 0.000000 -16.784773 3.413303 -3.682127 -55.434301 -3.153446 -4.662329 -12.389822 -19.240215 2.718398 0.000000 0.000000 0.000000 15.668898 -2.379406 -2.554796 60.115034 2.742140 -3.920660 8.782920 19.771810 2.006348 0.000000 0.000000 0.000000 
0.002936 0.940620 0.000599 -0.462447 2.557358 7.265986 6.061934 -0.417246 -5.487436 3.133075 -0.189340 -2.155441 9.190067 19.586107 19.889120 0.000000 0.000000 0.000000 -5.570731 0.494470 -5.852034 -1.713833 0.220341 0.664798 6.156151 11.954974 5.178109 0.000000 0.000000 0.000000 1.238068 0.155665 -3.975863 -0.510003 0.371380 -4.688966 -0.648967 -0.385041 -0.462782 0.719050 0.320790 -9.646959 0.000000 0.000000 0.000000 -16.296506 3.491599 -3.666948 -55.539968 -3.438157 -4.505255 -12.937628 -19.210033 2.798603 0.000000 0.000000 0.000000 15.305155 -2.560743 -2.597633 60.034274 2.576622 -3.949286 9.031622 19.962374 2.065491 0.000000 0.000000 0.000000 
0.003055 0.940584 0.000646 -0.374930 2.534059 7.397169 5.873020 -0.429339 -5.698518 3.280566 -0.210573 -2.015801 9.207787 19.610180 19.912638 0.000000 0.000000 0.000000 -5.620785 0.499541 -5.937009 -1.819204 0.226994 0.570402 6.148588 11.944080 5.168081 0.000000 0.000000 0.000000 1.200441 0.157795 -4.032556 -0.403081 0.328404 -4.766100 -0.687277 -0.341701 -0.504462 0.707290 0.355992 -9.936996 0.000000 0.000000 0.000000 -16.206122 3.505296 -3.668316 -55.373400 -3.770928 -4.331452 -13.381253 -19.380159 2.896832 0.000000 0.000000 0.000000 15.396644 -2.592878 -2.617504 59.741974 2.592180 -3.915538 8.868383 20.090708 2.056136 0.000000 0.000000 0.000000 
